<svg xmlns="http://www.w3.org/2000/svg" viewBox="0 0 210 56" width="210" height="56">
  <defs>
    <style>
      .brand-icon-bg { fill: #1B56B0; rx: 10px; }
      .brand-icon-path { fill: #ffffff; }
      .brand-108 {
        font-family: 'Kanit', -apple-system, BlinkMacSystemFont, 'Segoe UI', Roboto, 'Helvetica Neue', Arial, sans-serif;
        font-weight: 800;
        font-size: 32px;
        fill: #f5bb4c;
        paint-order: stroke fill;
        stroke: #0d2238;
        stroke-width: 2px;
        stroke-linejoin: round;
        letter-spacing: -0.5px;
      }
      .brand-heros {
        font-family: 'Kanit', -apple-system, BlinkMacSystemFont, 'Segoe UI', Roboto, 'Helvetica Neue', Arial, sans-serif;
        font-weight: 800;
        font-size: 32px;
        fill: #ffffff;
        paint-order: stroke fill;
        stroke: #0d2238;
        stroke-width: 2px;
        stroke-linejoin: round;
        letter-spacing: -0.5px;
      }
    </style>
    <filter id="logo-drop-shadow" x="-10%" y="-10%" width="125%" height="125%">
      <feDropShadow dx="0" dy="1.5" stdDeviation="1.2" flood-color="#000000" flood-opacity="0.35"/>
    </filter>
  </defs>

  <g filter="url(#logo-drop-shadow)">
    <!-- 108 Clover Knot App Icon Badge (scaled to 46x46, positioned at x=4, y=5) -->
    <g transform="translate(4, 5)">
      <rect width="46" height="46" rx="10" fill="#1B56B0"/>
      <g transform="scale(0.0449)">
        <path d="M0 0 C0.33 19.47 0.66 38.94 1 59 C5.29 55.37 9.58 51.74 14 48 C16.64 46.22 19.04 44.65 21.81 43.19 C22.48 42.83 23.14 42.47 23.82 42.1 C46.61 30.09 75.21 25.19 100.44 31.69 C102.64 32.42 104.83 33.19 107 34 C108.17 34.37 109.34 34.75 110.54 35.13 C138.51 44.34 159.25 64.2 172.61 90.07 C183.9 112.52 188.11 140.34 182 165 C181.91 165.42 181.91 165.42 181.45 167.55 C175.45 192.49 160.48 214.12 143.2 232.63 C141.38 234.59 139.64 236.57 137.91 238.6 C133.88 243.2 129.61 247.53 125.29 251.85 C124.47 252.66 123.66 253.48 122.82 254.32 C121.1 256.03 119.39 257.74 117.68 259.45 C115.07 262.06 112.47 264.66 109.87 267.27 C108.2 268.94 106.52 270.61 104.85 272.29 C104.08 273.06 103.31 273.83 102.52 274.62 C99.12 278 95.71 281.3 92.07 284.43 C87.15 288.67 82.61 293.27 78.03 297.87 C77.11 298.79 76.19 299.72 75.24 300.67 C72.82 303.09 70.4 305.52 67.98 307.95 C65.5 310.44 63.02 312.93 60.54 315.41 C55.69 320.27 50.84 325.13 46 330 C42.28 328.26 39.91 326.14 37.02 323.21 C36.79 322.98 36.79 322.98 35.62 321.81 C34.16 320.33 32.7 318.85 31.25 317.38 C30.26 316.37 29.26 315.37 28.27 314.37 C25.84 311.92 23.42 309.46 21 307 C22.42 304.05 23.77 301.98 26.12 299.69 C26.66 299.16 27.2 298.62 27.76 298.07 C29.01 296.91 30.28 295.76 31.58 294.65 C37.16 289.89 42.34 284.77 47.49 279.56 C49.02 278 50.56 276.45 52.1 274.9 C56.48 270.51 60.84 266.1 65.21 261.7 C67.89 258.99 70.58 256.28 73.27 253.58 C74.29 252.55 75.31 251.52 76.33 250.49 C77.74 249.06 79.16 247.63 80.59 246.2 C81.39 245.39 82.2 244.58 83.03 243.74 C85 242 85 242 87 242 C87.33 241.01 87.66 240.02 88 239 C89.32 237.7 89.32 237.7 91.12 236.25 C101.78 227.19 111.42 217.03 120 206 C120.89 204.91 121.78 203.82 122.67 202.74 C132.34 190.88 140.27 178.66 145 164 C145.32 163.08 145.64 162.17 145.96 161.23 C151.66 142.48 148.11 121.69 139.2 104.61 C128.31 84.72 112.66 72.55 91 66 C73.55 61.42 53.22 66.02 37.94 74.75 C20.73 85.64 8.28 102.52 3.19 122.31 C0.25 137.69 1.09 153.17 6 168 C6.15 168.46 6.15 168.46 6.91 170.82 C10.42 180.51 16.68 188.71 22.75 196.94 C23.2 197.56 23.65 198.18 24.12 198.81 C33.11 210.8 44.08 221.22 54.69 231.75 C55.99 233.04 57.29 234.34 58.58 235.63 C61.72 238.76 64.86 241.88 68 245 C63.66 250.12 59.18 255 54.44 259.75 C53.79 260.41 53.14 261.07 52.48 261.75 C51.84 262.38 51.21 263.02 50.56 263.67 C49.99 264.24 49.43 264.81 48.85 265.39 C46.72 267.25 44.45 268.61 42 270 C38.99 267.02 35.99 264.03 32.99 261.04 C31.97 260.03 30.95 259.01 29.93 258 C24.61 252.73 19.36 247.44 14.49 241.74 C11.47 238.21 8.28 234.83 5.14 231.42 C3 229 3 229 1 226 C0.67 245.14 0.34 264.28 0 284 C-3.72 282.14 -5.44 280.74 -8.25 277.81 C-11.68 274.31 -15.18 271.01 -18.9 267.82 C-22.12 265.03 -25.26 262.17 -28.41 259.31 C-31 257 -31 257 -32.75 256.05 C-35.13 254.58 -36.44 253.34 -38 251 C-39.09 245.4 -38.94 239.85 -38.89 234.16 C-38.89 232.43 -38.91 230.69 -38.92 228.96 C-38.95 224.26 -38.93 219.55 -38.91 214.85 C-38.9 209.94 -38.92 205.02 -38.94 200.1 C-38.97 190.79 -38.97 181.49 -38.95 172.18 C-38.93 161.58 -38.95 150.99 -38.98 140.39 C-39.03 118.59 -39.03 96.8 -39 75 C-41.98 77.19 -44.96 79.38 -47.94 81.57 C-48.77 82.18 -49.6 82.79 -50.46 83.42 C-56.7 88.01 -62.89 92.67 -69 97.44 C-73.67 101 -73.67 101 -77 101 C-78.32 99.61 -78.32 99.61 -79.64 97.67 C-79.88 97.31 -79.88 97.31 -81.13 95.51 C-81.64 94.74 -82.16 93.98 -82.69 93.19 C-83.76 91.63 -84.83 90.07 -85.9 88.52 C-86.43 87.75 -86.95 86.98 -87.49 86.19 C-89.53 83.23 -91.63 80.33 -93.75 77.44 C-94.38 76.57 -95.02 75.7 -95.67 74.81 C-95.89 74.51 -95.89 74.51 -97 73 C-95.49 68.86 -92.58 67 -89.06 64.62 C-87.79 63.74 -86.51 62.85 -85.23 61.96 C-84.55 61.48 -83.86 61.01 -83.16 60.52 C-79.33 57.83 -75.57 55.03 -71.81 52.25 C-70.18 51.05 -68.55 49.84 -66.93 48.64 C-66.52 48.34 -66.52 48.34 -64.46 46.81 C-60.47 43.87 -56.49 40.94 -52.5 38 C-50.92 36.83 -49.33 35.67 -47.75 34.5 C-38.25 27.5 -38.25 27.5 -35.87 25.75 C-34.3 24.59 -32.73 23.43 -31.16 22.27 C-27.01 19.22 -22.87 16.17 -18.72 13.11 C-17.86 12.48 -17 11.84 -16.11 11.19 C-14.45 9.97 -12.8 8.75 -11.14 7.53 C-10.39 6.98 -9.65 6.43 -8.88 5.86 C-8.22 5.38 -7.57 4.9 -6.9 4.4 C-5.53 3.39 -4.17 2.36 -2.82 1.32 C-1 0 -1 0 0 0 Z " fill="#FFFFFF" transform="translate(447,191)"/>
      <path d="M0 0 C20.54 18.07 31.72 38.59 38 65 C38.25 66.02 38.5 67.05 38.75 68.1 C43.96 93.77 37.66 122.87 24.02 145.01 C8.26 168.39 -13.65 184.82 -41 192 C-42.2 192.37 -43.39 192.74 -44.62 193.12 C-72.17 200.27 -102.78 193.29 -127.04 179.43 C-139.35 172.06 -151.24 163.48 -162 154 C-162.46 153.6 -162.46 153.6 -164.77 151.56 C-172.22 144.88 -179.29 137.81 -186.38 130.75 C-186.61 130.51 -186.61 130.51 -187.81 129.32 C-192.88 124.27 -197.81 119.18 -202.47 113.75 C-204.7 111.2 -207.08 108.86 -209.5 106.5 C-212.54 103.53 -215.42 100.55 -218.18 97.32 C-221.94 93 -225.93 88.97 -230.02 84.96 C-231.53 83.46 -233.04 81.96 -234.55 80.46 C-236.91 78.12 -239.27 75.79 -241.63 73.46 C-243.93 71.2 -246.22 68.92 -248.52 66.64 C-249.22 65.95 -249.93 65.26 -250.66 64.55 C-253.98 61.24 -256.85 58.22 -259 54 C-247.09 41.91 -247.09 41.91 -240.62 36.4 C-238.65 34.7 -236.81 32.88 -235 31 C-231.09 32.59 -228.63 35.14 -225.69 38.12 C-224.78 39.04 -223.88 39.95 -222.95 40.88 C-220.84 43.07 -218.84 45.34 -216.86 47.65 C-212.03 53.21 -206.74 58.33 -201.5 63.5 C-189.89 74.96 -189.89 74.96 -184.59 81.15 C-175.65 91.55 -165.84 101.27 -156.19 111 C-155.34 111.86 -154.49 112.72 -153.62 113.6 C-147.73 119.5 -141.54 124.84 -135 130 C-134.26 130.59 -133.51 131.18 -132.75 131.79 C-110.63 149.29 -88.39 162.56 -59.1 159.72 C-40.38 156.86 -22.96 147.25 -11.25 132.31 C1.42 114.39 7.01 94.58 3.38 72.8 C-0.64 52.95 -12.38 34.13 -29.22 22.84 C-32.71 20.68 -36.31 18.79 -40 17 C-41.09 16.47 -42.19 15.94 -43.32 15.39 C-57.32 9.72 -76.81 9.13 -91.01 14.61 C-92 15.07 -92.98 15.53 -94 16 C-94.61 16.27 -95.23 16.55 -95.86 16.83 C-105.63 21.22 -114.44 26.54 -123 33 C-123.58 33.44 -124.16 33.87 -124.76 34.33 C-131.6 39.52 -138.21 44.9 -144.52 50.73 C-146.55 52.59 -148.61 54.38 -150.7 56.18 C-155.52 60.38 -160 64.89 -164.5 69.44 C-164.91 69.85 -164.91 69.85 -166.99 71.94 C-169 73.96 -171 75.98 -173 78 C-176.53 76.35 -178.46 74.6 -181 71.62 C-185.19 66.83 -189.6 62.35 -194.19 57.94 C-195.5 56.66 -196.75 55.33 -198 54 C-198 53.34 -198 52.68 -198 52 C-196.67 50.7 -196.67 50.7 -194.75 49.12 C-190.97 45.92 -187.47 42.53 -184 39 C-180.15 35.11 -176.26 31.35 -172.08 27.81 C-170.53 26.46 -169.03 25.07 -167.55 23.66 C-154.17 10.94 -139.19 -0.12 -123 -9 C-121.88 -9.62 -120.75 -10.25 -119.6 -10.89 C-81.39 -31.06 -33.71 -28.15 0 0 Z " fill="#FFFFFF" transform="translate(788,444)"/>
      <path d="M0 0 C1.27 0.34 2.54 0.68 3.84 1.03 C47.17 13.16 79.68 48.49 110.42 79.29 C113.17 82.04 115.92 84.79 118.67 87.54 C120.82 89.68 122.96 91.82 125.1 93.97 C126.11 94.98 127.13 96 128.15 97.01 C129.56 98.42 130.97 99.83 132.38 101.25 C133.18 102.05 133.97 102.85 134.8 103.67 C137 106 137 106 139.16 108.73 C141 111 141 111 143 112 C143 112.66 143 113.32 143 114 C143.28 114.12 143.28 114.12 144.72 114.73 C147.47 116.26 149.33 118.11 151.55 120.35 C152.39 121.2 153.24 122.05 154.11 122.93 C154.98 123.82 155.85 124.71 156.75 125.62 C157.64 126.52 158.53 127.42 159.44 128.34 C161.63 130.56 163.82 132.78 166 135 C164.68 137.95 163.31 139.9 160.92 142.06 C160.32 142.61 159.71 143.16 159.09 143.73 C158.46 144.29 157.83 144.86 157.19 145.44 C155.95 146.56 154.72 147.68 153.48 148.81 C152.89 149.35 152.29 149.89 151.68 150.44 C150.18 151.83 148.74 153.27 147.3 154.72 C145.29 156.71 143.28 158.34 141 160 C126.64 145.64 126.64 145.64 124.18 143.18 C122.92 141.92 121.65 140.65 120.39 139.39 C118.66 137.67 116.94 135.94 115.23 134.19 C112.42 131.34 109.59 128.61 106.5 126.06 C104.05 124.01 101.95 121.87 99.89 119.43 C95.57 114.44 90.95 109.79 86.3 105.13 C85.38 104.21 84.46 103.29 83.51 102.34 C81.58 100.4 79.64 98.46 77.7 96.52 C75.25 94.07 72.8 91.61 70.36 89.14 C67.99 86.76 65.61 84.38 63.23 82 C62.37 81.13 61.51 80.27 60.62 79.37 C54.72 73.49 48.53 68.16 42 63 C41.22 62.38 40.44 61.76 39.64 61.12 C30.78 54.11 21.85 47.56 12 42 C11.16 41.52 10.33 41.04 9.47 40.55 C7.02 39.23 4.56 38.08 2 37 C1.07 36.61 0.14 36.21 -0.82 35.81 C-8.89 32.97 -16.62 32.58 -25.12 32.5 C-25.67 32.49 -25.67 32.49 -28.41 32.44 C-46.47 32.58 -63.81 42.05 -76.57 54.5 C-90.33 68.9 -97.59 89.45 -97.42 109.13 C-96.7 130.65 -86.93 149.61 -71.57 164.33 C-56.63 177.16 -37.62 182.57 -18.21 181.23 C5.2 178.78 23.36 165.44 41 151 C41.27 150.78 41.27 150.78 42.62 149.69 C55.78 138.92 68.11 127.15 80 115 C83.77 116.56 86.14 118.91 88.98 121.79 C89.44 122.25 89.91 122.72 90.38 123.19 C91.84 124.67 93.3 126.15 94.75 127.62 C95.74 128.63 96.74 129.63 97.73 130.63 C100.16 133.08 102.58 135.54 105 138 C103.65 141.01 102.14 143.1 99.8 145.43 C99.18 146.05 98.55 146.68 97.9 147.33 C97.56 147.66 97.56 147.66 95.88 149.31 C95.19 149.99 94.51 150.67 93.8 151.36 C89.99 155.11 86.15 158.77 82.06 162.21 C79.83 164.15 77.68 166.17 75.53 168.19 C43.96 197.85 8.65 217.59 -35.42 216.22 C-61.07 214.63 -84.12 201.83 -102 184 C-102.78 183.24 -103.56 182.49 -104.36 181.71 C-123.91 161.53 -133.57 132.58 -133.35 104.86 C-132.6 75.82 -120.76 49.97 -101 29 C-100.46 28.4 -99.92 27.79 -99.36 27.17 C-75.25 1.24 -33.7 -9.76 0 0 Z " fill="#FFFFFF" transform="translate(349,423)"/>
      <path d="M0 0 C3.62 1.53 5.96 3.7 8.73 6.46 C9.17 6.91 9.17 6.91 11.41 9.14 C12.33 10.06 13.24 10.99 14.19 11.94 C15.11 12.86 16.04 13.78 17 14.72 C17.88 15.61 18.76 16.49 19.67 17.4 C20.48 18.21 21.28 19.02 22.11 19.86 C24 22 24 22 25 25 C22.16 27.87 19.31 30.73 16.47 33.59 C15.5 34.56 14.54 35.53 13.58 36.5 C8.48 41.64 3.39 46.7 -2.15 51.36 C-4.54 53.48 -6.75 55.74 -9 58 C-10.92 59.91 -12.85 61.81 -14.78 63.71 C-20.47 69.34 -26.14 74.97 -31.82 80.61 C-35.23 84.01 -38.66 87.4 -42.09 90.78 C-71.47 119.78 -71.47 119.78 -81 134 C-81.62 134.91 -82.25 135.82 -82.89 136.76 C-84.3 138.9 -85.64 141.05 -86.94 143.25 C-87.16 143.62 -87.16 143.62 -88.29 145.51 C-99.7 164.94 -105.58 184.37 -99.94 206.69 C-95.03 224.43 -84.35 240.47 -68.29 250.02 C-61.52 253.77 -54.5 257.03 -47 259 C-46.28 259.2 -45.57 259.41 -44.83 259.62 C-26.32 264.15 -5.62 260.14 10.61 250.44 C13.16 248.72 15.59 246.91 18 245 C18.42 244.68 18.42 244.68 20.53 243.04 C30.95 234.39 37.64 222.72 42 210 C42.32 209.08 42.64 208.16 42.96 207.22 C48.37 189.08 44.98 169.47 36.34 152.95 C35.25 150.95 34.13 148.97 33 147 C32.62 146.33 32.24 145.66 31.85 144.97 C26.3 135.31 19.88 126.81 12.41 118.55 C11.1 117.11 9.81 115.65 8.52 114.19 C2.07 106.9 -4.65 100.09 -12.04 93.74 C-15.16 90.97 -18.09 88 -21 85 C-19.58 81.74 -17.89 79.7 -15.3 77.29 C-14.56 76.6 -13.83 75.91 -13.07 75.21 C-12.31 74.5 -11.54 73.79 -10.75 73.06 C-10.37 72.71 -10.37 72.71 -8.47 70.93 C-4.41 67.15 -0.28 63.53 4 60 C8.58 64.55 13.15 69.1 17.71 73.66 C19.27 75.21 20.82 76.75 22.37 78.3 C24.62 80.53 26.86 82.76 29.1 85 C29.78 85.68 30.47 86.36 31.18 87.06 C57.9 113.78 79.86 147.97 80.38 186.84 C80.36 198.6 79.82 208.84 76 220 C75.63 221.19 75.25 222.39 74.87 223.62 C65.82 250.99 46.22 271.91 20.95 285.23 C7.74 291.8 -6.32 295.19 -21 296 C-21.77 296.05 -22.54 296.1 -23.33 296.15 C-52.27 297.79 -80.28 287.66 -102.11 268.73 C-121.28 251.43 -135.31 226.93 -137.24 200.81 C-139 156.23 -119.04 120.88 -89.46 88.79 C-81.94 80.71 -74.09 72.94 -66.28 65.15 C-63.54 62.42 -60.81 59.68 -58.07 56.94 C-56.32 55.18 -54.57 53.43 -52.82 51.68 C-52 50.87 -51.19 50.06 -50.36 49.22 C-46.71 45.59 -43.1 42.13 -39 39 C-38.03 37.93 -37.09 36.82 -36.19 35.69 C-34.15 33.23 -32.06 31.12 -29.61 29.08 C-23.43 23.74 -17.75 17.86 -12 12.06 C-10.83 10.89 -9.66 9.72 -8.5 8.54 C-5.66 5.7 -2.83 2.85 0 0 Z " fill="#FFFFFF" transform="translate(551,537)"/>
      </g>
    </g>

    <!-- Typography: 108Heros -->
    <text x="58" y="39">
      <tspan class="brand-108">108</tspan>
      <tspan class="brand-heros">Heros</tspan>
    </text>
  </g>
</svg>
